<?xml version="1.0" encoding="UTF-8"?>
<svg width="396" height="120" viewBox="0 0 330 100" xmlns="http://www.w3.org/2000/svg">
    <g fill="#083a94">
        <rect width="110" height="100"/>
    </g>
    <g transform="matrix(2.1875 0 0 2.1875 20 14.976)" fill="#f7f7f7">
        <g display="none" xmlns="http://www.w3.org/2000/svg">
            <rect x="-26.591" y="-65.699" width="240.18" height="241.4" fill="#f7f7f7"/>
        </g>
        <g display="none" xmlns="http://www.w3.org/2000/svg">
            <path d="m16 1.425 14.586 14.586-14.586 14.585-14.586-14.585 14.586-14.586m0-1.414-16 16 16 16 16-16-16-16z"/>
            <path d="m16 9.901 6.11 6.11-6.11 6.11-6.11-6.11 6.11-6.11m0-1.415-7.524 7.524 7.524 7.525 7.524-7.524-7.524-7.525z"/>
        </g>
        <g display="none" xmlns="http://www.w3.org/2000/svg">
            <g>
                <rect transform="matrix(.7071 -.7071 .7071 .7071 -6.635 16.003)" x="5.186" y="5.197" width="21.628" height="21.628" fill="#f7f7f7"/>
                <path d="m16 1.425 14.586 14.586-14.586 14.585-14.586-14.585 14.586-14.586m0-1.414-16 16 16 16 16-16-16-16z"/>
            </g>
            <g>
                <rect transform="matrix(.7071 -.7071 .7071 .7071 -6.635 16.003)" x="11.179" y="11.19" width="9.641" height="9.641" fill="#f7f7f7"/>
                <path d="m16 9.901 6.11 6.11-6.11 6.11-6.11-6.11 6.11-6.11m0-1.415-7.524 7.524 7.524 7.525 7.524-7.524-7.524-7.525z"/>
            </g>
        </g>
        <g display="none" xmlns="http://www.w3.org/2000/svg">
            <g>
                <rect transform="matrix(.7071 -.7071 .7071 .7071 -6.6349 16.003)" x="4.686" y="4.697" width="22.627" height="22.627" fill="#f7f7f7"/>
            </g>
            <g>
                <rect transform="matrix(.7071 -.7071 .7071 .7071 -6.6349 16.003)" x="10.68" y="10.69" width="10.641" height="10.641" fill="#f7f7f7"/>
            </g>
        </g>
        <g xmlns="http://www.w3.org/2000/svg">
            <path d="m32 16.011-16-16-16 16 16 16 16-16zm-16-5.302 5.302 5.302-5.302 5.301-5.302-5.302 5.302-5.301z"/>
        </g>
    </g>
    <g transform="matrix(1.3437 0 0 1.3437 124.95 -12.791)" fill="#083a94">
        <path d="m15.48 24v-10.04c0-0.2 0.16-0.36 0.36-0.36h4.56c0.2 0 0.36 0.16 0.36 0.36v25.68c0 0.2-0.16 0.36-0.36 0.36h-4.56c-0.2 0-0.36-0.16-0.36-0.36v-10.64h-6.48v10.64c0 0.2-0.16 0.36-0.36 0.36h-4.56c-0.2 0-0.32-0.16-0.32-0.36v-25.68c0-0.2 0.12-0.36 0.32-0.36h4.56c0.2 0 0.36 0.16 0.36 0.36v10.04h6.48zm-9.4 13.52c0 0.32 0.52 0.28 0.52 0v-10.72h11.24v10.72c0 0.28 0.44 0.32 0.44 0v-21.52c0-0.28-0.44-0.36-0.44 0v10.24h-11.24v-10.24c0-0.28-0.52-0.28-0.52 0v21.52zm22.48 2.48c-0.2 0-0.32-0.16-0.32-0.36v-25.68c0-0.2 0.12-0.36 0.32-0.36h13.6c0.2 0 0.36 0.16 0.36 0.36v4.28c0 0.2-0.16 0.36-0.36 0.36h-8.64v5.44h6.72c0.2 0 0.32 0.16 0.32 0.36v4.36c0 0.2-0.12 0.36-0.32 0.36h-6.72v5.88h8.64c0.2 0 0.36 0.16 0.36 0.36v4.28c0 0.2-0.16 0.36-0.36 0.36h-13.6zm2-23.88v21.28c0 0.24 0.16 0.32 0.32 0.32h9.2c0.36 0 0.28-0.48 0-0.48h-9v-10.44h7.36c0.24 0 0.24-0.56 0-0.56h-7.36v-9.92h9c0.28 0 0.36-0.52 0-0.52h-9.2c-0.16 0-0.32 0.12-0.32 0.32zm27.4-2.88c3.44 0 5.84 0.76 7.36 2.4 1.2 1.32 1.76 3.2 1.76 5.88v10.52c0 2.76-0.56 4.68-1.76 5.96-1.56 1.6-3.92 2.4-7.36 2.4-3.56 0-5.88-0.8-7.4-2.4-1.16-1.28-1.8-3.2-1.8-5.96v-10.52c0-2.68 0.64-4.56 1.8-5.92 1.56-1.6 3.92-2.36 7.4-2.36zm3.8 17.6v-8c0-3.52-1.88-4.24-3.6-4.24h-0.48c-2.56 0-3.56 1.64-3.56 4.24v8c0 3.52 1.88 4.28 3.56 4.28h0.48c2.56 0 3.56-1.72 3.6-4.28zm-10.48-9.04v9.92c0 1.88 0.48 3.44 1.6 4.6 1.04 1.04 2.64 1.6 4.6 1.6h1.04c3.76 0 6.2-2.4 6.2-6.2v-9.92c0-4.08-2.16-6.28-6.2-6.28h-1.04c-4.08 0-6.2 2.2-6.2 6.28zm7.24 15.6h-1.04c-1.88 0-3.28-0.48-4.28-1.48s-1.52-2.4-1.52-4.2v-9.92c0-3.8 2.04-5.8 5.8-5.8h1.04c3.8 0 5.68 1.96 5.68 5.8v9.92c0 1.68-0.52 3.2-1.6 4.24-1.04 0.88-2.44 1.44-4.08 1.44zm20.44-23.8c0.2 0 0.36 0.16 0.36 0.36v21h8.64c0.2 0 0.36 0.16 0.36 0.36v4.32c0 0.2-0.16 0.36-0.36 0.36h-13.56c-0.2 0-0.32-0.16-0.32-0.36v-25.68c0-0.2 0.12-0.36 0.32-0.36h4.56zm-2.48 2.44v21.52c0 0.08 0.08 0.2 0.24 0.2h9.24c0.32 0 0.32-0.52 0-0.52h-9.04v-21.2c0-0.28-0.44-0.32-0.44 0zm22.32-2.44c0.2 0 0.36 0.16 0.36 0.36v21h8.64c0.2 0 0.36 0.16 0.36 0.36v4.32c0 0.2-0.16 0.36-0.36 0.36h-13.56c-0.2 0-0.32-0.16-0.32-0.36v-25.68c0-0.2 0.12-0.36 0.32-0.36h4.56zm-2.48 2.44v21.52c0 0.08 0.08 0.2 0.24 0.2h9.24c0.32 0 0.32-0.52 0-0.52h-9.04v-21.2c0-0.28-0.44-0.32-0.44 0zm17.76 23.96c-0.2 0-0.32-0.16-0.32-0.36v-25.68c0-0.2 0.12-0.36 0.32-0.36h13.6c0.2 0 0.36 0.16 0.36 0.36v4.28c0 0.2-0.16 0.36-0.36 0.36h-8.64v5.44h6.72c0.2 0 0.32 0.16 0.32 0.36v4.36c0 0.2-0.12 0.36-0.32 0.36h-6.72v5.88h8.64c0.2 0 0.36 0.16 0.36 0.36v4.28c0 0.2-0.16 0.36-0.36 0.36h-13.6zm2-23.88v21.28c0 0.24 0.16 0.32 0.32 0.32h9.2c0.36 0 0.28-0.48 0-0.48h-9v-10.44h7.36c0.24 0 0.24-0.56 0-0.56h-7.36v-9.92h9c0.28 0 0.36-0.52 0-0.52h-9.2c-0.16 0-0.32 0.12-0.32 0.32zm27.4-2.88c3.44 0 5.84 0.76 7.36 2.4 1.2 1.32 1.76 3.2 1.76 5.88v10.52c0 2.76-0.56 4.68-1.76 5.96-1.56 1.6-3.92 2.4-7.36 2.4-3.56 0-5.88-0.8-7.4-2.4-1.16-1.28-1.8-3.2-1.8-5.96v-10.52c0-2.68 0.64-4.56 1.8-5.92 1.56-1.6 3.92-2.36 7.4-2.36zm3.8 17.6v-8c0-3.52-1.88-4.24-3.6-4.24h-0.48c-2.56 0-3.56 1.64-3.56 4.24v8c0 3.52 1.88 4.28 3.56 4.28h0.48c2.56 0 3.56-1.72 3.6-4.28zm-10.48-9.04v9.92c0 1.88 0.48 3.44 1.6 4.6 1.04 1.04 2.64 1.6 4.6 1.6h1.04c3.76 0 6.2-2.4 6.2-6.2v-9.92c0-4.08-2.16-6.28-6.2-6.28h-1.04c-4.08 0-6.2 2.2-6.2 6.28zm7.24 15.6h-1.04c-1.88 0-3.28-0.48-4.28-1.48s-1.52-2.4-1.52-4.2v-9.92c0-3.8 2.04-5.8 5.8-5.8h1.04c3.8 0 5.68 1.96 5.68 5.8v9.92c0 1.68-0.52 3.2-1.6 4.24-1.04 0.88-2.44 1.44-4.08 1.44z"/>
    </g>
    <g transform="translate(128.76 51.1)" fill="#1e477a">
        <path d="m2.4 20c-0.64 0-1.16-0.52-1.16-1.16v-12.7c0-0.64 0.52-1.16 1.16-1.16h6.42c1.88 0 3.4 1.52 3.4 3.4v8.22c0 1.86-1.52 3.4-3.4 3.4h-6.42zm1.1-1.72h5.32c0.84 0 1.52-0.68 1.52-1.52v-8.54c0-0.84-0.68-1.52-1.52-1.52h-5.32c-0.22 0-0.38 0.16-0.38 0.38v10.82c0 0.2 0.16 0.38 0.38 0.38zm14.5-11.58c-0.84 0-1.52 0.68-1.52 1.52v3.8c0.2-0.24 0.56-0.4 0.98-0.4h6.58v1.46c0 0.14-0.12 0.26-0.26 0.26h-7.3v3.42c0 0.84 0.68 1.52 1.52 1.52h6.48c0.14 0 0.26 0.12 0.26 0.26v1.46h-6.74c-1.88 0-3.4-1.52-3.4-3.4v-8.22c0-1.88 1.52-3.4 3.4-3.4h6.74v1.46c0 0.14-0.12 0.26-0.26 0.26h-6.48zm14.1 10.76 4.24-12.24c0.06-0.12 0.2-0.24 0.34-0.24h1.74l-5.2 14.76c-0.04 0.14-0.2 0.26-0.34 0.26h-1.58c-0.14 0-0.3-0.12-0.34-0.26l-5.2-14.76h1.74c0.14 0 0.3 0.12 0.34 0.24zm7.64 0.82h7.4c0.84 0 1.48-0.68 1.48-1.52v-1.82c0-0.2-0.16-0.42-0.36-0.48l-7.68-2.56c-0.6-0.2-1.1-0.88-1.1-1.52v-2.38c0-1.88 1.52-3.02 3.4-3.02h7.12v1.46c0 0.14-0.1 0.26-0.26 0.26h-6.86c-0.84 0-1.54 0.54-1.54 1.38v1.94c0 0.22 0.16 0.44 0.36 0.5l7.68 2.54c0.6 0.2 1.04 0.9 1.04 1.54v2.14c0 1.88-1.42 3.26-3.28 3.26h-7.66v-1.46c0-0.16 0.12-0.26 0.26-0.26zm12.24-13.3h10.64v1.46c0 0.14-0.12 0.26-0.26 0.26h-4.28v13.04c0 0.14-0.1 0.26-0.26 0.26h-1.62v-13.3h-4.48v-1.46c0-0.14 0.12-0.26 0.26-0.26zm19.08 0.14 5.24 14.88h-1.64c-0.18 0-0.32-0.12-0.36-0.26l-1.34-3.86h-7.64l-1.34 3.86c-0.04 0.14-0.2 0.26-0.36 0.26h-1.64l4.88-13.9c0.24-0.66 0.86-1.12 1.58-1.12h2.38c0.1 0 0.2 0.06 0.24 0.14zm-5.14 9.04h6.44l-2.6-7.46h-0.98c-0.16 0-0.3 0.1-0.36 0.26zm9.8-9.18h10.64v1.46c0 0.14-0.12 0.26-0.26 0.26h-4.28v13.04c0 0.14-0.1 0.26-0.26 0.26h-1.62v-13.3h-4.48v-1.46c0-0.14 0.12-0.26 0.26-0.26zm12.86 15.02c-0.14 0-0.26-0.12-0.26-0.26v-14.76h1.62c0.14 0 0.26 0.12 0.26 0.26v14.76h-1.62zm12.24 0.08h-4.52c-1.88 0-3.4-1.52-3.4-3.4v-8.38c0-1.88 1.52-3.4 3.4-3.4h4.52c1.86 0 3.4 1.52 3.4 3.4v8.38c0 1.88-1.54 3.4-3.4 3.4zm-4.52-13.46c-0.84 0-1.52 0.68-1.52 1.52v8.7c0 0.84 0.68 1.52 1.52 1.52h4.52c0.84 0 1.52-0.68 1.52-1.52v-8.7c0-0.84-0.68-1.52-1.52-1.52h-4.52zm18.64 7.08 1.82 3.58c-0.2-1.56-0.2-2.82-0.3-4.24v-7.8c0-0.14 0.12-0.26 0.26-0.26h1.62v15.02h-1.74c-0.14 0-0.32-0.12-0.38-0.24l-6.84-12.74c-0.1-0.18-0.34-0.32-0.54-0.32h-0.34v13.04c0 0.14-0.12 0.26-0.26 0.26h-1.62v-14.76c0-0.14 0.12-0.26 0.26-0.26h2.28c0.64 0 1.4 0.46 1.7 1.02z"/>
    </g>
    <g transform="translate(128.38 76.02)" fill="#1e477a">
        <path d="m1.88 20c-0.14 0-0.26-0.12-0.26-0.26v-14.76h1.62c0.14 0 0.26 0.12 0.26 0.26v14.76h-1.62zm12.66-6.3 1.82 3.58c-0.2-1.56-0.2-2.82-0.3-4.24v-7.8c0-0.14 0.12-0.26 0.26-0.26h1.62v15.02h-1.74c-0.14 0-0.32-0.12-0.38-0.24l-6.84-12.74c-0.1-0.18-0.34-0.32-0.54-0.32h-0.34v13.04c0 0.14-0.12 0.26-0.26 0.26h-1.62v-14.76c0-0.14 0.12-0.26 0.26-0.26h2.28c0.64 0 1.4 0.46 1.7 1.02zm5.72 4.58h7.4c0.84 0 1.48-0.68 1.48-1.52v-1.82c0-0.2-0.16-0.42-0.36-0.48l-7.68-2.56c-0.6-0.2-1.1-0.88-1.1-1.52v-2.38c0-1.88 1.52-3.02 3.4-3.02h7.12v1.46c0 0.14-0.1 0.26-0.26 0.26h-6.86c-0.84 0-1.54 0.54-1.54 1.38v1.94c0 0.22 0.16 0.44 0.36 0.5l7.68 2.54c0.6 0.2 1.04 0.9 1.04 1.54v2.14c0 1.88-1.42 3.26-3.28 3.26h-7.66v-1.46c0-0.16 0.12-0.26 0.26-0.26zm12.24-13.3h10.64v1.46c0 0.14-0.12 0.26-0.26 0.26h-4.28v13.04c0 0.14-0.1 0.26-0.26 0.26h-1.62v-13.3h-4.48v-1.46c0-0.14 0.12-0.26 0.26-0.26zm19.08 0.14 5.24 14.88h-1.64c-0.18 0-0.32-0.12-0.36-0.26l-1.34-3.86h-7.64l-1.34 3.86c-0.04 0.14-0.2 0.26-0.36 0.26h-1.64l4.88-13.9c0.24-0.66 0.86-1.12 1.58-1.12h2.38c0.1 0 0.2 0.06 0.24 0.14zm-5.14 9.04h6.44l-2.6-7.46h-0.98c-0.16 0-0.3 0.1-0.36 0.26zm15.36 5.84c-1.88 0-3.42-1.56-3.42-3.46v-11.3c0-0.14 0.12-0.26 0.26-0.26h1.62v11.74c0 0.86 0.7 1.56 1.54 1.56h6.24c0.14 0 0.26 0.12 0.26 0.26v1.46h-6.5zm11.52 0c-1.88 0-3.42-1.56-3.42-3.46v-11.3c0-0.14 0.12-0.26 0.26-0.26h1.62v11.74c0 0.86 0.7 1.56 1.54 1.56h6.24c0.14 0 0.26 0.12 0.26 0.26v1.46h-6.5zm11.5-13.3c-0.84 0-1.52 0.68-1.52 1.52v3.8c0.2-0.24 0.56-0.4 0.98-0.4h6.58v1.46c0 0.14-0.12 0.26-0.26 0.26h-7.3v3.42c0 0.84 0.68 1.52 1.52 1.52h6.48c0.14 0 0.26 0.12 0.26 0.26v1.46h-6.74c-1.88 0-3.4-1.52-3.4-3.4v-8.22c0-1.88 1.52-3.4 3.4-3.4h6.74v1.46c0 0.14-0.12 0.26-0.26 0.26h-6.48zm10.5 6.1h-0.04v6.94c0 0.14-0.12 0.26-0.26 0.26h-1.62v-13.86c0-0.64 0.52-1.16 1.16-1.16h6.28c1.88 0 3.4 1.18 3.4 3.22v1.94c0 1.76-1.26 2.72-2.72 3.1l3.2 6.76h-1.74c-0.14 0-0.3-0.12-0.36-0.24l-3.04-6.42h-2.56-0.58c-0.56 0-0.98-0.16-1.12-0.54zm0.34-1.18h5.18c0.84 0 1.52-0.68 1.52-1.52v-1.88c0-0.84-0.68-1.52-1.52-1.52h-5.18c-0.22 0-0.38 0.18-0.38 0.38v4.16c0 0.22 0.18 0.38 0.38 0.38z"/>
    </g>
</svg>
