<?xml version="1.0" encoding="UTF-8"?>
<svg width="429" height="91.027" viewBox="0 0 410.02 87" xmlns="http://www.w3.org/2000/svg">
    <g fill="#083a94">
        <rect width="97" height="87"/>
    </g>
    <g transform="matrix(1.7805 0 0 1.7805 20 14.98)" fill="#f7f7f7">
        <g display="none" xmlns="http://www.w3.org/2000/svg">
            <rect x="-26.591" y="-65.699" width="240.18" height="241.4" display="inline" fill="#f7f7f7"/>
        </g>
        <g display="none" xmlns="http://www.w3.org/2000/svg">
            <path d="m16 1.425 14.586 14.586-14.586 14.585-14.586-14.585 14.586-14.586m0-1.414-16 16 16 16 16-16-16-16z" display="inline"/>
            <path d="m16 9.901 6.11 6.11-6.11 6.11-6.11-6.11 6.11-6.11m0-1.415-7.524 7.524 7.524 7.525 7.524-7.524-7.524-7.525z" display="inline"/>
        </g>
        <g display="none" xmlns="http://www.w3.org/2000/svg">
            <g display="inline">
                <rect transform="matrix(.7071 -.7071 .7071 .7071 -6.635 16.003)" x="5.186" y="5.197" width="21.628" height="21.628" fill="#f7f7f7"/>
                <path d="m16 1.425 14.586 14.586-14.586 14.585-14.586-14.585 14.586-14.586m0-1.414-16 16 16 16 16-16-16-16z"/>
            </g>
            <g display="inline">
                <rect transform="matrix(.7071 -.7071 .7071 .7071 -6.635 16.003)" x="11.179" y="11.19" width="9.641" height="9.641" fill="#f7f7f7"/>
                <path d="m16 9.901 6.11 6.11-6.11 6.11-6.11-6.11 6.11-6.11m0-1.415-7.524 7.524 7.524 7.525 7.524-7.524-7.524-7.525z"/>
            </g>
        </g>
        <g display="none" xmlns="http://www.w3.org/2000/svg">
            <g display="inline">
                <rect transform="matrix(.7071 -.7071 .7071 .7071 -6.6349 16.003)" x="4.686" y="4.697" width="22.627" height="22.627" fill="#f7f7f7"/>
            </g>
            <g display="inline">
                <rect transform="matrix(.7071 -.7071 .7071 .7071 -6.6349 16.003)" x="10.68" y="10.69" width="10.641" height="10.641" fill="#f7f7f7"/>
            </g>
        </g>
        <g xmlns="http://www.w3.org/2000/svg">
            <path d="m32 16.011-16-16-16 16 16 16 16-16zm-16-5.302 5.302 5.302-5.302 5.301-5.302-5.302 5.302-5.301z"/>
        </g>
    </g>
    <g transform="matrix(1.7686 0 0 1.7686 113.46 -4.185)" fill="#083a94">
        <path d="m2.52 40c-0.28 0-0.52-0.24-0.52-0.52v-23.96c0-0.28 0.24-0.52 0.52-0.52h5.2c0.28 0 0.52 0.24 0.52 0.52v9.84h9.04v-9.84c0-0.28 0.24-0.52 0.52-0.52h5.2c0.28 0 0.52 0.24 0.52 0.52v23.96c0 0.28-0.24 0.52-0.52 0.52h-5.2c-0.28 0-0.52-0.24-0.52-0.52v-8.6h-9.04v8.6c0 0.28-0.24 0.52-0.52 0.52h-5.2zm25 0v-23.96c0-1 0.2-1.2 0.52-1.2h17.52c0.28 0 0.52 0.2 0.52 0.48v4.52c0 0.28-0.24 0.52-0.52 0.52h-11.84v4.16h7.48c0.28 0 0.52 0.24 0.52 0.52v4.48c0 0.28-0.24 0.52-0.52 0.52h-7.48v4.28h11.8c0.28 0 0.52 0.24 0.52 0.52v4.48c0 0.28-0.24 0.52-0.52 0.52h-17.48c-0.32 0-0.52-0.24-0.52 0.16zm35.44 0c-2.4 0-4.6-0.56-6.52-1.68-1.96-1.12-3.52-2.72-4.68-4.64-1.12-1.96-1.68-4.2-1.68-6.6 0-2.36 0.56-4.56 1.68-6.52 1.16-1.96 2.68-3.52 4.64-4.64s4.16-1.68 6.56-1.68c2.36 0 4.56 0.56 6.52 1.68s3.52 2.68 4.64 4.64c1.16 1.96 1.72 4.16 1.72 6.52 0 2.4-0.56 4.6-1.72 6.56-1.12 1.96-2.68 3.52-4.64 4.68-1.96 1.12-4.16 1.68-6.52 1.68zm0.08-5.76c1.16 0 2.24-0.32 3.2-0.92 1-0.64 1.8-1.48 2.36-2.6 0.6-1.08 0.88-2.32 0.88-3.64 0-1.28-0.28-2.52-0.88-3.6-0.56-1.08-1.36-1.92-2.36-2.56-0.96-0.6-2.04-0.92-3.2-0.92-1.2 0-2.28 0.32-3.28 0.92-1.04 0.64-1.84 1.48-2.44 2.56-0.6 1.12-0.88 2.32-0.88 3.6 0 1.32 0.28 2.56 0.88 3.64 0.64 1.08 1.44 1.96 2.44 2.56 1 0.64 2.08 0.96 3.28 0.96zm17.32 5.76c-0.28 0-0.52-0.24-0.52-0.52v-23.96c0-0.28 0.24-0.52 0.52-0.52h5.2c0.28 0 0.52 0.24 0.52 0.52v18.72h9c0.28 0 0.52 0.24 0.52 0.52v4.72c0 0.28-0.24 0.52-0.52 0.52h-14.72zm19.76 0c-0.28 0-0.52-0.24-0.52-0.52v-23.96c0-0.28 0.24-0.52 0.52-0.52h5.2c0.28 0 0.52 0.24 0.52 0.52v18.72h9c0.28 0 0.52 0.24 0.52 0.52v4.72c0 0.28-0.24 0.52-0.52 0.52h-14.72zm19.24 0v-23.96c0-1 0.2-1.2 0.52-1.2h17.52c0.28 0 0.52 0.2 0.52 0.48v4.52c0 0.28-0.24 0.52-0.52 0.52h-11.84v4.16h7.48c0.28 0 0.52 0.24 0.52 0.52v4.48c0 0.28-0.24 0.52-0.52 0.52h-7.48v4.28h11.8c0.28 0 0.52 0.24 0.52 0.52v4.48c0 0.28-0.24 0.52-0.52 0.52h-17.48c-0.32 0-0.52-0.24-0.52 0.16zm35.44 0c-2.4 0-4.6-0.56-6.52-1.68-1.96-1.12-3.52-2.72-4.68-4.64-1.12-1.96-1.68-4.2-1.68-6.6 0-2.36 0.56-4.56 1.68-6.52 1.16-1.96 2.68-3.52 4.64-4.64s4.16-1.68 6.56-1.68c2.36 0 4.56 0.56 6.52 1.68s3.52 2.68 4.64 4.64c1.16 1.96 1.72 4.16 1.72 6.52 0 2.4-0.56 4.6-1.72 6.56-1.12 1.96-2.68 3.52-4.64 4.68-1.96 1.12-4.16 1.68-6.52 1.68zm0.08-5.76c1.16 0 2.24-0.32 3.2-0.92 1-0.64 1.8-1.48 2.36-2.6 0.6-1.08 0.88-2.32 0.88-3.64 0-1.28-0.28-2.52-0.88-3.6-0.56-1.08-1.36-1.92-2.36-2.56-0.96-0.6-2.04-0.92-3.2-0.92-1.2 0-2.28 0.32-3.28 0.92-1.04 0.64-1.84 1.48-2.44 2.56-0.6 1.12-0.88 2.32-0.88 3.6 0 1.32 0.28 2.56 0.88 3.64 0.64 1.08 1.44 1.96 2.44 2.56 1 0.64 2.08 0.96 3.28 0.96z"/>
    </g>
</svg>
